grf
version=1
nRows=14
nColumns=37
inDegrees=no
endheader
time	ground_force_1_vx	ground_force_1_vy	ground_force_1_vz	ground_force_1_px	ground_force_1_py	ground_force_1_pz	ground_moment_1_mx	ground_moment_1_my	ground_moment_1_mz	ground_force_2_vx	ground_force_2_vy	ground_force_2_vz	ground_force_2_px	ground_force_2_py	ground_force_2_pz	ground_moment_2_mx	ground_moment_2_my	ground_moment_2_mz	ground_force_3_vx	ground_force_3_vy	ground_force_3_vz	ground_force_3_px	ground_force_3_py	ground_force_3_pz	ground_moment_3_mx	ground_moment_3_my	ground_moment_3_mz	ground_force_4_vx	ground_force_4_vy	ground_force_4_vz	ground_force_4_px	ground_force_4_py	ground_force_4_pz	ground_moment_4_mx	ground_moment_4_my	ground_moment_4_mz
      0.00000000	      0.00000000	     -0.00000000	      0.00000000	      0.00000000	      0.00000000	      0.00000000	      0.00000000	      0.00000000	      0.00000000	      1.65641892	     54.45624542	   -420.63732910	   -316.47261454	  -1106.29745860	      0.00000000	      0.00000000	      0.00000000	   2127.03352931	      5.57682118	    -50.75866367	   -455.18972778	   -316.37653971	   -671.79542548	      0.00000000	      0.00000000	     -0.00000000	  -2306.40899126	      0.00000000	     -0.00000000	      0.00000000	      0.00000000	      0.00000000	      0.00000000	      0.00000000	      0.00000000	      0.00000000
      0.01000000	      0.00000000	     -0.00000000	      0.00000000	      0.00000000	      0.00000000	      0.00000000	      0.00000000	      0.00000000	      0.00000000	      1.18591654	     53.39977264	   -421.80050659	   -316.28960554	  -1107.25584929	      0.00000000	      0.00000000	      0.00000000	   2012.20605960	      5.54002701	    -50.59619189	   -454.59539795	   -316.47536165	   -672.48004721	      0.00000000	      0.00000000	      0.00000000	  -2321.07890153	      0.00000000	     -0.00000000	      0.00000000	      0.00000000	      0.00000000	      0.00000000	      0.00000000	      0.00000000	      0.00000000
      0.02000000	      0.00000000	     -0.00000000	      0.00000000	      0.00000000	      0.00000000	      0.00000000	      0.00000000	      0.00000000	      0.00000000	      1.35205245	     52.75265884	   -420.94082642	   -316.48083441	  -1105.58885470	      0.00000000	      0.00000000	      0.00000000	   2016.59462692	      6.51401081	    -50.16671810	   -457.78677368	   -317.05814311	   -672.36385921	      0.00000000	      0.00000000	      0.00000000	  -2452.07642722	      0.00000000	     -0.00000000	      0.00000000	      0.00000000	      0.00000000	      0.00000000	      0.00000000	      0.00000000	      0.00000000
      0.03000000	      0.00000000	     -0.00000000	      0.00000000	      0.00000000	      0.00000000	      0.00000000	      0.00000000	      0.00000000	      0.00000000	      1.84794748	     52.54874420	   -422.85723877	   -317.26753726	  -1106.54567411	      0.00000000	      0.00000000	     -0.00000000	   2019.62188095	      6.12103979	    -49.96481758	   -458.58575439	   -317.38330061	   -672.61140953	      0.00000000	      0.00000000	      0.00000000	  -2303.06446739	      0.00000000	     -0.00000000	      0.00000000	      0.00000000	      0.00000000	      0.00000000	      0.00000000	      0.00000000	      0.00000000
      0.04000000	      0.00000000	     -0.00000000	      0.00000000	      0.00000000	      0.00000000	      0.00000000	      0.00000000	      0.00000000	      0.00000000	      1.50444794	     51.69563293	   -424.11767578	   -317.10137084	  -1106.63988197	      0.00000000	      0.00000000	      0.00000000	   1978.37710285	      6.05735062	    -49.27067237	   -459.28656006	   -317.92448218	   -672.12924286	      0.00000000	      0.00000000	     -0.00000000	  -2330.17493004	      0.00000000	     -0.00000000	      0.00000000	      0.00000000	      0.00000000	      0.00000000	      0.00000000	      0.00000000	      0.00000000
      0.05000000	      0.00000000	     -0.00000000	      0.00000000	      0.00000000	      0.00000000	      0.00000000	      0.00000000	      0.00000000	      0.00000000	      1.91319537	     51.22528839	   -423.76345825	   -317.31860096	  -1105.54630959	      0.00000000	      0.00000000	      0.00000000	   1878.80356124	      6.34939484	    -48.60144480	   -457.88647461	   -317.90896432	   -671.46706300	      0.00000000	      0.00000000	     -0.00000000	  -2331.10815225	      0.00000000	     -0.00000000	      0.00000000	      0.00000000	      0.00000000	      0.00000000	      0.00000000	      0.00000000	      0.00000000
      0.06000000	      0.00000000	     -0.00000000	      0.00000000	      0.00000000	      0.00000000	      0.00000000	      0.00000000	      0.00000000	      0.00000000	      2.07882810	     51.09606552	   -423.71948242	   -317.67217173	  -1106.58071971	      0.00000000	      0.00000000	      0.00000000	   1894.27411402	      6.27419094	    -48.71358163	   -455.59014893	   -318.36137332	   -672.26372447	      0.00000000	      0.00000000	     -0.00000000	  -2072.16532013	      0.00000000	     -0.00000000	      0.00000000	      0.00000000	      0.00000000	      0.00000000	      0.00000000	      0.00000000	      0.00000000
      0.07000000	      0.00000000	     -0.00000000	      0.00000000	      0.00000000	      0.00000000	      0.00000000	      0.00000000	      0.00000000	      0.00000000	      2.41201329	     51.69563293	   -422.59371948	   -317.63689190	  -1106.03037497	      0.00000000	      0.00000000	      0.00000000	   1944.42933281	      6.95699690	    -49.24610962	   -457.29428101	   -318.54892102	   -671.66929488	      0.00000000	      0.00000000	     -0.00000000	  -1963.43159910	      0.00000000	     -0.00000000	      0.00000000	      0.00000000	      0.00000000	      0.00000000	      0.00000000	      0.00000000	      0.00000000
      0.08000000	      0.00000000	     -0.00000000	      0.00000000	      0.00000000	      0.00000000	      0.00000000	      0.00000000	      0.00000000	      0.00000000	      2.01421857	     51.78049850	   -421.17779541	   -318.59239075	  -1106.39106599	      0.00000000	      0.00000000	     -0.00000000	   1681.59836351	      7.80654477	    -49.24623939	   -459.83270264	   -319.17495334	   -671.30509413	      0.00000000	      0.00000000	     -0.00000000	  -1916.88193943	      0.00000000	     -0.00000000	      0.00000000	      0.00000000	      0.00000000	      0.00000000	      0.00000000	      0.00000000	      0.00000000
      0.09000000	      0.00000000	     -0.00000000	      0.00000000	      0.00000000	      0.00000000	      0.00000000	      0.00000000	      0.00000000	      0.00000000	      2.61041403	     51.96302795	   -421.04672241	   -317.94164541	  -1105.83527316	      0.00000000	      0.00000000	      0.00000000	   1515.15729104	      9.09076642	    -49.15309604	   -462.57043457	   -320.63414888	   -670.85214144	      0.00000000	      0.00000000	     -0.00000000	  -1769.60109796	      0.00000000	     -0.00000000	      0.00000000	      0.00000000	      0.00000000	      0.00000000	      0.00000000	      0.00000000	      0.00000000
      0.10000000	      0.00000000	     -0.00000000	      0.00000000	      0.00000000	      0.00000000	      0.00000000	      0.00000000	      0.00000000	      0.00000000	      2.32799768	     52.06657791	   -421.25277710	   -317.88184613	  -1106.29247006	      0.00000000	      0.00000000	      0.00000000	   1516.00607527	      9.58076044	    -49.48291481	   -462.68225098	   -321.47143804	   -671.25784389	      0.00000000	      0.00000000	     -0.00000000	  -1600.55360743	      0.00000000	     -0.00000000	      0.00000000	      0.00000000	      0.00000000	      0.00000000	      0.00000000	      0.00000000	      0.00000000
      0.11000000	      0.00000000	     -0.00000000	      0.00000000	      0.00000000	      0.00000000	      0.00000000	      0.00000000	      0.00000000	      0.00000000	      1.23431337	     52.34878922	   -420.81671143	   -317.31763520	  -1107.05371867	      0.00000000	      0.00000000	     -0.00000000	   1264.75047663	     10.57110351	    -49.82144257	   -460.85464478	   -322.72464228	   -670.83389712	      0.00000000	      0.00000000	     -0.00000000	  -1353.21838239	      0.00000000	     -0.00000000	      0.00000000	      0.00000000	      0.00000000	      0.00000000	      0.00000000	      0.00000000	      0.00000000
      0.12000000	      0.00000000	     -0.00000000	      0.00000000	      0.00000000	      0.00000000	      0.00000000	      0.00000000	      0.00000000	      0.00000000	      0.04460911	     52.71320724	   -419.51892090	   -316.94302702	  -1106.95809816	      0.00000000	      0.00000000	      0.00000000	   1297.74048409	     11.00759823	    -51.03524877	   -458.17437744	   -323.36634035	   -670.49205835	      0.00000000	      0.00000000	     -0.00000000	  -1256.54054013	      0.00000000	     -0.00000000	      0.00000000	      0.00000000	      0.00000000	      0.00000000	      0.00000000	      0.00000000	      0.00000000
      0.13000000	      0.00000000	     -0.00000000	      0.00000000	      0.00000000	      0.00000000	      0.00000000	      0.00000000	      0.00000000	      0.00000000	     -0.98131561	     53.13684464	   -417.54541016	   -316.11238135	  -1107.46977020	      0.00000000	      0.00000000	      0.00000000	   1186.96813608	     10.74079817	    -52.55140780	   -456.05117798	   -324.50840695	   -669.73284082	      0.00000000	      0.00000000	     -0.00000000	   -966.65918979	      0.00000000	     -0.00000000	      0.00000000	      0.00000000	      0.00000000	      0.00000000	      0.00000000	      0.00000000	      0.00000000
